<?xml version="1.0" encoding="UTF-8"?>
<svg width="16px" height="16px" viewBox="0 0 16 16" version="1.1" xmlns="http://www.w3.org/2000/svg" xmlns:xlink="http://www.w3.org/1999/xlink">
    <!-- Generator: Sketch 48.2 (47327) - http://www.bohemiancoding.com/sketch -->
    <title>logo_googleg_48dp</title>
    <desc>Created with Sketch.</desc>
    <defs></defs>
    <g id="01---Landing-Page" stroke="none" stroke-width="1" fill="none" fill-rule="evenodd" transform="translate(-29.000000, -222.000000)">
        <g id="hero" transform="translate(0.000000, 74.000000)">
            <g id="sign-up-button---blue" transform="translate(17.000000, 136.000000)">
                <g id="logo_googleg_48dp" transform="translate(12.173913, 12.173913)">
                    <path d="M15.3391304,8.00395257 C15.3391304,7.44901186 15.2893281,6.91541502 15.1968379,6.40316206 L7.82608696,6.40316206 L7.82608696,9.43043478 L12.0379447,9.43043478 C11.8565217,10.4086957 11.3051383,11.2375494 10.4762846,11.7924901 L10.4762846,13.7561265 L13.0055336,13.7561265 C14.4853755,12.3936759 15.3391304,10.3873518 15.3391304,8.00395257 L15.3391304,8.00395257 Z" id="Shape" fill="#4285F4"></path>
                    <path d="M7.82608696,15.6521739 C9.93913043,15.6521739 11.7106719,14.9513834 13.0055336,13.7561265 L10.4762846,11.7924901 C9.77549407,12.2620553 8.87905138,12.5395257 7.82608696,12.5395257 C5.78774704,12.5395257 4.06245059,11.1628458 3.44703557,9.31304348 L0.832411067,9.31304348 L0.832411067,11.3407115 C2.1201581,13.898419 4.76679842,15.6521739 7.82608696,15.6521739 L7.82608696,15.6521739 Z" id="Shape" fill="#34A853"></path>
                    <path d="M3.44703557,9.31304348 C3.29051383,8.84347826 3.20158103,8.34189723 3.20158103,7.82608696 C3.20158103,7.31027668 3.29051383,6.80869565 3.44703557,6.33913043 L3.44703557,4.31146245 L0.832411067,4.31146245 C0.302371542,5.36798419 0,6.56324111 0,7.82608696 C0,9.08893281 0.302371542,10.2841897 0.832411067,11.3407115 L3.44703557,9.31304348 L3.44703557,9.31304348 Z" id="Shape" fill="#FBBC05"></path>
                    <path d="M7.82608696,3.11264822 C8.97509881,3.11264822 10.0067194,3.50750988 10.8177866,4.28300395 L13.0624506,2.03833992 C11.7071146,0.775494071 9.93557312,0 7.82608696,0 C4.76679842,0 2.1201581,1.75375494 0.832411067,4.31146245 L3.44703557,6.33913043 C4.06245059,4.48932806 5.78774704,3.11264822 7.82608696,3.11264822 L7.82608696,3.11264822 Z" id="Shape" fill="#EA4335"></path>
                    <polygon id="Shape" points="0 0 15.6521739 0 15.6521739 15.6521739 0 15.6521739"></polygon>
                </g>
            </g>
        </g>
    </g>
</svg>